<svg xmlns="http://www.w3.org/2000/svg" xmlns:xlink="http://www.w3.org/1999/xlink" fill="none" version="1.1" width="228" height="30" viewBox="0 0 228 30"><g><g><g><g><g><g><path d="M26.887987818115235,17.00000396911621L32.788169818115236,11.25000396911621L32.788169818115236,10.083333969116211L26.297969818115234,16.41666396911621L26.887987818115235,17.00000396911621Z" fill="#FF6600" fill-opacity="1"/></g><g><path d="M25.79224051385498,15.916663015441895L32.78817951385498,9.166663015441895L32.78817951385498,8.083333015441895L25.28650951385498,15.416663015441895L25.79224051385498,15.916663015441895Z" fill="#FF6600" fill-opacity="1"/></g><g><path d="M27.98373612237549,17.999996984558106L32.78817012237549,13.333336984558105L32.78817012237549,12.166666984558105L27.30943012237549,17.416666984558105L27.98373612237549,17.999996984558106Z" fill="#FF6600" fill-opacity="1"/></g><g><path d="M32.788213718032836,6.16667L28.489473718032837,2L27.309433718032835,2L19.470613718032837,9.66667L20.06063271803284,10.25L24.865073718032836,5.58333L29.079493718032836,9.75L24.275053718032837,14.4167L24.780783718032836,14.9167L32.70391371803284,7.16667L32.70391371803284,6.16667L32.788213718032836,6.16667ZM27.983743718032837,2.5L32.282413718032835,6.66667L31.776713718032838,7.08333L27.478013718032837,2.916667L27.983743718032837,2.5ZM29.079483718032836,9.75L29.332353718032834,9.5L29.079483718032836,9.75ZM29.753813718032838,9.16667L25.539373718032838,5L25.96081371803284,4.58333L30.259513718032835,8.75L29.753813718032838,9.16667ZM26.46654371803284,4L26.972273718032838,3.5L31.271013718032837,7.66667L30.84951371803284,8.08333L26.46654371803284,4Z" fill="#FF6600" fill-opacity="1"/></g><g><path d="M21.15638206237793,2L16.35194206237793,6.66667L16.94196106237793,7.16667L22.25213206237793,2L21.15638206237793,2Z" fill="#FF6600" fill-opacity="1"/></g><g><path d="M23.17930308189392,2L17.36340308189392,7.66667L17.95342108189392,8.25L24.27504308189392,2L23.17930308189392,2Z" fill="#FF6600" fill-opacity="1"/></g><g><path d="M25.202222432479857,2L18.37486243247986,8.66667L18.96488143247986,9.25L26.38225243247986,2L25.202222432479857,2Z" fill="#FF6600" fill-opacity="1"/></g></g><g><g><path d="M0,13.333336984558105L12.6433,25.833366984558104L13.9076,25.833366984558104L0,12.166666984558105L0,13.333336984558105Z" fill="#717071" fill-opacity="1"/></g><g><path d="M0,11.333336030883789L14.8348,25.833366030883788L15.9305,25.833366030883788L0,10.166666030883789L0,11.333336030883789Z" fill="#717071" fill-opacity="1"/></g><g><path d="M19.9763,25.8333L27.8994,18.0833L11.5475,2L10.2832,2L26.6351,18L19.3863,25.1667L18.9649,24.75L25.7922,18L9.4403,2L8.26026,2L24.6122,18L18.3749,24.1667L17.9534,23.75L23.7693,18L7.33309,2L6.23734,2L22.5893,18L17.3634,23.1667L16.8577,22.75L21.6621,18.0833L5.31017,2L4.21442,2L0,6.16667L0,7.25L18.9649,25.8333L19.9763,25.8333ZM16.3519,22.25L3.70869,9.83333L8.00739,5.66667L20.7349,18.0833L16.3519,22.25ZM2.61294,8.66667L6.91164,4.5L7.33309,5L3.03438,9.16667L2.61294,8.66667ZM2.02292,8.16667L1.51719,7.66667L5.73161,3.5L6.15305,3.91667L2.02292,8.16667ZM4.80444,2.5L5.22588,2.916667L1.01146,7.08333L0.50573,6.66667L4.80444,2.5Z" fill="#717071" fill-opacity="1"/></g><g><path d="M0,9.249996507720947L16.8577,25.833366507720946L18.0377,25.833366507720946L0,8.166666507720947L0,9.249996507720947Z" fill="#717071" fill-opacity="1"/></g></g></g><g><g><path d="M37.00258995336914,21.583366507720946L37.00258995336914,23.49996650772095L59.50757095336914,23.49996650772095L58.58037095336914,21.583366507720946L49.73017095336914,21.583366507720946L49.73017095336914,20.166666507720947L58.917570953369136,20.166666507720947L58.917570953369136,18.166666507720947L49.73017095336914,18.166666507720947L49.73017095336914,16.666666507720947L59.33897095336914,16.666666507720947L59.33897095336914,14.666666507720947L49.73017095336914,14.666666507720947L49.73017095336914,12.916666507720947L59.08617095336914,12.916666507720947L59.08617095336914,4.166666507720947L37.33974195336914,4.166666507720947L37.33974195336914,12.916666507720947L47.03287095336914,12.916666507720947L47.03287095336914,14.666666507720947L39.86839095336914,14.666666507720947L38.94122095336914,13.916666507720947L36.41257095336914,16.166666507720947L38.351200953369144,17.666666507720947L39.44695095336914,16.583366507720946L47.03287095336914,16.583366507720946L47.03287095336914,18.083366507720946L37.59260095336914,18.083366507720946L37.59260095336914,20.083366507720946L47.03287095336914,20.083366507720946L47.03287095336914,21.49996650772095L37.00258995336914,21.49996650772095L37.00258995336914,21.583366507720946ZM56.388870953369135,6.249996507720947L56.388870953369135,8.916666507720947L40.12126095336914,6.249996507720947L56.388870953369135,6.249996507720947ZM40.12126095336914,10.916666507720947L40.12126095336914,8.249996507720947L56.388870953369135,10.916666507720947L40.12126095336914,10.916666507720947Z" fill="#717071" fill-opacity="1"/></g><g><g><path d="M65.91348995653152,18.083332538604736L65.49204995653153,16.083332538604736L60.603329956531525,16.999999538604737L61.024771956531524,19.000002538604736L65.91348995653152,18.083332538604736Z" fill="#717071" fill-opacity="1"/></g><g><path d="M69.28502757141113,4.166666507720947L60.01330757141113,4.166666507720947L61.109057571411135,6.249996507720947L66.33493757141113,6.249996507720947L65.49204757141113,12.833336507720947L63.55341757141113,12.833336507720947L64.31201757141113,7.333336507720947L61.614787571411135,7.083336507720947L60.687616571411134,14.916666507720947L66.84066757141113,14.916666507720947L66.50351757141114,21.416666507720947L61.44621757141113,21.416666507720947L60.77190357141113,23.49996650772095L69.11644757141113,23.49996650772095L69.62217757141113,12.833336507720947L68.10499757141113,12.833336507720947L69.28502757141113,4.166666507720947Z" fill="#717071" fill-opacity="1"/></g><g><path d="M72.23512066925049,13.499996507720947L76.9552706692505,11.083336507720947L81.75969066925049,13.416666507720947L83.69829066925048,12.166666507720947L79.14677066925049,9.916666507720947L83.36119066925049,7.749996507720947L83.36119066925049,4.166666507720947L70.8865066692505,4.166666507720947L70.8865066692505,6.166666507720947L80.57969066925048,6.166666507720947L80.57969066925048,6.999996507720947L77.03956066925049,8.916666507720947L73.58374066925049,7.249996507720947L71.56082066925049,8.416666507720947L74.84806066925049,9.999996507720947L70.29649066925049,12.333336507720947L72.23512066925049,13.499996507720947Z" fill="#717071" fill-opacity="1"/></g><g><path d="M78.30388066925049,17.083336507720947L82.77119066925049,17.083336507720947L82.77119066925049,15.083336507720947L78.30388066925049,15.083336507720947L78.30388066925049,13.166666507720947L75.60665066925048,13.166666507720947L75.60665066925048,15.083336507720947L70.80221966925049,15.083336507720947L70.80221966925049,17.083336507720947L75.60665066925048,17.083336507720947L75.60665066925048,19.583336507720947L70.29649066925049,19.583336507720947L70.29649066925049,21.583336507720947L75.60665066925048,21.583336507720947L75.60665066925048,23.49996650772095L78.30388066925049,23.49996650772095L78.30388066925049,21.583336507720947L83.36119066925049,21.583336507720947L83.36119066925049,19.583336507720947L78.30388066925049,19.583336507720947L78.30388066925049,17.083336507720947Z" fill="#717071" fill-opacity="1"/></g></g><g><g><path d="M90.18854530883789,5.499996507720947L87.65989530883789,4.166666507720947L84.11978530883789,12.749996507720947L85.5526853088379,13.499996507720947L85.5526853088379,23.666666507720947L88.67135530883789,23.666666507720947L88.67135530883789,12.999996507720947L86.9855853088379,12.999996507720947L90.18854530883789,5.499996507720947Z" fill="#717071" fill-opacity="1"/></g><g><path d="M104.43330224151612,7.250003015441894L104.43330224151612,4.3333330154418945L101.31460224151611,4.3333330154418945L101.31460224151611,7.250003015441894L89.76710224151611,7.250003015441894L89.76710224151611,9.416663015441895L101.31460224151611,9.416663015441895L101.31460224151611,21.583333015441895L97.18448224151611,21.583333015441895L97.18448224151611,23.666633015441896L104.43330224151612,23.666633015441896L104.43330224151612,9.416663015441895L106.28760224151611,9.416663015441895L106.28760224151611,7.250003015441894L104.43330224151612,7.250003015441894Z" fill="#717071" fill-opacity="1"/></g></g><g><path d="M99.20739043823242,15.083336507720947L95.41441043823242,18.833336507720947L91.70573043823242,15.083336507720947L95.41441043823242,11.416666507720947L99.20739043823242,15.083336507720947Z" fill="#FF6600" fill-opacity="1"/></g></g></g></g><g><g transform="matrix(0,1,-1,0,114.12642669677734,-114.12642669677734)"></g><g><rect x="114.29501368105412" y="0" width="0.4214417338371277" height="30" rx="0" fill="#717071" fill-opacity="1"/></g></g><g><g><g><path d="M175.15117548828124,19.25C208.44507548828125,19.25,228.00037548828124,27.75,228.00037548828124,28C228.00037548828124,28.25,207.93937548828126,19.999998,175.15117548828124,20.249999C153.32047548828126,20.41667,135.28277548828126,23,121.12237548828125,28C134.86137548828125,22.16667,152.89907548828126,19.25,175.15117548828124,19.25Z" fill="#717071" fill-opacity="1"/></g></g><g><g><path d="M132.66986233688354,10.25000316986084C132.41699233688354,11.08333316986084,132.75416233688355,11.83333316986084,132.83844233688353,12.58333316986084C132.83844233688353,12.83333316986084,133.00701233688355,12.91666316986084,133.25988233688355,12.83333316986084C133.84989233688356,12.58333316986084,134.35563233688356,12.16666316986084,134.86135233688356,11.75000316986084L134.94565233688354,11.66666316986084C135.19851233688354,11.25000316986084,135.70424233688354,11.33333316986084,135.95710233688354,11.75000316986084C136.20997233688354,12.16666316986084,136.20997233688354,12.66666316986084,135.70424233688354,13.00000316986084C135.28279233688355,13.33333316986084,134.69278233688354,13.58333316986084,134.18704233688354,13.75000316986084C133.93417233688353,13.83333316986084,133.68131233688354,13.66666316986084,133.42845233688354,13.58333316986084C133.34416233688356,13.50000316986084,133.17559233688354,13.50000316986084,133.09130233688356,13.58333316986084C133.00701233688355,13.66666316986084,133.00701233688355,13.83333316986084,133.00701233688355,13.91666316986084C133.25988233688355,15.16666316986084,133.51275233688355,16.50000316986084,133.59703233688356,17.74999316986084C133.59703233688356,17.99999316986084,133.76560233688355,18.08333316986084,134.01847233688355,17.99999316986084C135.02993233688355,17.66666316986084,135.95710233688354,17.41666316986084,136.96856233688354,17.16666316986084C137.22143233688354,17.08333316986084,137.39000233688355,16.91666316986084,137.55858233688355,16.74999316986084C137.72715233688353,16.58333316986084,137.81144233688354,16.58333316986084,137.98002233688354,16.66666316986084C138.48575233688354,16.91666316986084,138.90720233688356,17.24999316986084,139.16005233688355,17.74999316986084C139.41295233688354,18.08333316986084,139.32865233688355,18.33333316986084,138.82290233688354,18.33333316986084C137.81144233688354,18.33333316986084,136.79999233688355,18.41666316986084,135.70424233688354,18.58333316986084C134.60848233688355,18.74999316986084,133.51273233688354,19.08336316986084,132.50128233688355,19.66666316986084C132.16413233688354,19.91666316986084,131.74269233688355,20.08336316986084,131.48982233688355,20.24996316986084C130.81551233688356,20.74996316986084,130.14120133688354,20.58336316986084,129.55118533688355,20.24996316986084C129.46689133688355,20.16666316986084,129.29831753688356,20.08336316986084,129.29831753688356,19.99996316986084C129.29831753688356,19.91666316986084,129.21402403688356,19.74996316986084,129.29831753688356,19.66666316986084C129.38261133688354,19.58336316986084,129.46689133688355,19.66666316986084,129.55118533688355,19.66666316986084C129.88833333688353,19.74996316986084,130.14120133688354,19.74996316986084,130.39407233688354,19.58336316986084C131.06838233688356,19.24996316986084,131.82697233688356,18.99996316986084,132.58557233688356,18.66666316986084C132.83844233688353,18.58333316986084,132.92272233688354,18.41666316986084,132.83844233688353,18.08333316986084C132.16413233688354,15.58333316986084,131.48982233688355,12.99999316986084,130.89980233688354,10.49999316986084C130.81551233688356,10.33333316986084,130.73123233688355,10.16666316986084,130.64693233688354,10.08333316986084C130.47836233688355,9.99999316986084,130.39407233688354,9.91666316986084,130.22549433688354,9.83333016986084C130.05692033688354,9.66666316986084,129.80405233688356,9.58333016986084,129.88834633688356,9.33333016986084C129.97263933688353,9.16666316986084,130.39408233688354,8.91666316986084,130.64693233688354,8.91666316986084C131.23695233688355,9.08332916986084,131.82697233688356,9.33333016986084,132.33270233688356,9.74999616986084C132.66986233688354,9.749999169860839,132.66986233688354,10.00000316986084,132.66986233688354,10.25000316986084Z" fill="#717071" fill-opacity="1"/></g><g><path d="M158.46210078283693,8.166669403953552C158.9678362828369,7.416669403953552,159.55785428283693,6.666669403953552,160.4007342828369,6.249999403953552C161.24361428283692,5.833329403953552,162.0022042828369,5.499999403953552,162.9293842828369,5.166669403953552C163.4351242828369,4.999999403953552,163.4351242828369,4.999999403953552,163.4351242828369,4.416669403953552C163.4351242828369,3.916669403953552,163.35082428283692,3.416669403953552,163.35082428283692,2.916669403953552C163.35082428283692,2.666666403953552,163.26653428283691,2.4999994039535522,163.09796428283693,2.3333324039535523C163.0136642828369,2.2499994039535522,162.76081428283692,2.0833324039535523,162.84509428283693,1.9166664039535521C162.9293842828369,1.7499994039535522,163.1822442828369,1.7499994039535522,163.35082428283692,1.7499994039535522C163.85656428283693,1.8333326039535522,164.7837242828369,2.7499994039535522,164.86802428283693,3.166669403953552C164.86802428283693,3.3333294039535524,164.86802428283693,3.416669403953552,164.7837242828369,3.5833294039535524C164.6994342828369,3.9999994039535522,164.6994342828369,4.083329403953552,165.2051642828369,4.166669403953552C165.5423142828369,4.249999403953552,165.87947428283692,4.333329403953552,166.2166242828369,4.416669403953552C166.5537742828369,4.499999403953552,166.7223642828369,4.666669403953552,166.7223642828369,4.999999403953552C166.7223642828369,5.333329403953552,166.55378428283692,5.583329403953552,166.30092428283692,5.666669403953552C165.87947428283692,5.833329403953552,165.37374428283692,5.916669403953552,164.9523042828369,5.999999403953552C164.61515428283693,6.083329403953552,164.53086428283692,6.166669403953552,164.53086428283692,6.499999403953552C164.61515428283693,8.583329403953552,164.7837242828369,10.666669403953552,165.2051642828369,12.749999403953552C165.28946428283692,13.416699403953553,165.28946428283692,14.083299403953552,165.03659428283692,14.749999403953552C164.9523042828369,14.999999403953552,164.7837242828369,15.249999403953552,164.61515428283693,15.416699403953553C164.36228428283692,15.666699403953553,164.1937142828369,15.583299403953552,164.02513428283692,15.333299403953552C163.9408442828369,15.166699403953553,163.77226428283691,15.083299403953552,163.6879842828369,14.999999403953552C162.84510428283693,14.499999403953552,162.00222428283692,13.916699403953553,161.24363428283692,13.249999403953552C160.9064842828369,12.999999403953552,160.6536142828369,12.666699403953553,160.48504428283692,12.333299403953552C160.5693342828369,12.249999403953552,160.6536142828369,12.333299403953552,160.73791428283693,12.333299403953552C160.9064842828369,12.416699403953553,160.99077428283692,12.499999403953552,161.15935428283692,12.583299403953552C161.9179442828369,13.416699403953553,162.8451142828369,13.416699403953553,163.77229428283692,13.333299403953552C164.1094442828369,13.333299403953552,164.02516428283693,13.083299403953552,164.02516428283693,12.833299403953552C163.8565842828369,11.333329403953552,163.68801428283692,9.833329403953552,163.6037242828369,8.333329403953552C163.51940428283692,7.749999403953552,163.51940428283692,7.249999403953552,163.51940428283692,6.666669403953552C163.51940428283692,6.416669403953552,163.35082428283692,6.249999403953552,163.09796428283693,6.333329403953552C161.49648428283692,6.666669403953552,159.97929428283692,7.166669403953552,158.6306752828369,8.166669403953552C158.5463812828369,8.166669403953552,158.5463812828369,8.249999403953552,158.46210078283693,8.333329403953552C158.37780738283692,8.333329403953552,158.37780738283692,8.249999403953552,158.46210078283693,8.166669403953552Z" fill="#717071" fill-opacity="1"/></g><g><path d="M212.4909445291748,18.583348569488525C212.4909445291748,17.999948569488524,212.74381252917482,17.499998569488525,212.9966795291748,16.999998569488525C213.5867005291748,16.166668569488525,214.1767105291748,15.333328569488526,214.5981505291748,14.333328569488526C214.68245052917482,14.083328569488526,214.8510205291748,13.833328569488526,214.9353005291748,13.583328569488526C215.0195905291748,13.499998569488525,215.0195905291748,13.333328569488526,214.9353005291748,13.249998569488525C214.8510105291748,13.166668569488525,214.6824305291748,13.166668569488525,214.5981505291748,13.249998569488525C214.2610005291748,13.416668569488525,213.8395605291748,13.583328569488526,213.41812052917481,13.666668569488525C213.3338305291748,13.666668569488525,213.2495475291748,13.666668569488525,213.1652545291748,13.666668569488525C213.0809605291748,13.666668569488525,212.9123865291748,13.666668569488525,212.8281055291748,13.583328569488526C212.8281055291748,13.416668569488525,212.9123995291748,13.333328569488526,212.9966795291748,13.249998569488525C213.1652545291748,13.166668569488525,213.41812052917481,12.999998569488525,213.5867005291748,12.916668569488525C215.2724605291748,11.833328569488526,216.7896605291748,10.499998569488525,218.1382705291748,8.999998569488525C218.3068605291748,8.833332569488526,218.22257052917482,8.666666569488525,218.22257052917482,8.499999569488525C218.22257052917482,8.333332569488526,218.1382705291748,7.999998869488525,218.3911505291748,7.999998869488525C218.6440105291748,7.916665269488526,218.9811805291748,7.999998869488525,219.0654505291748,8.249998569488525C219.4026005291748,8.749999569488525,219.5711905291748,9.333328569488526,219.48689052917481,9.999998569488525C219.48689052917481,10.249998569488525,219.2340405291748,10.499998569488525,218.98116052917482,10.666668569488525C217.9696905291748,11.416668569488525,216.8739505291748,12.083328569488526,215.69392052917482,12.666668569488525C215.3567705291748,12.833328569488526,215.18818052917482,12.999998569488525,215.2724705291748,13.416668569488525C215.44105052917482,14.083328569488526,215.3567705291748,14.666668569488525,215.0196105291748,15.249998569488525C214.42959052917482,16.583328569488526,213.92386052917482,17.833328569488526,213.3338405291748,19.166648569488526C213.2495475291748,19.416648569488526,213.1652665291748,19.666648569488526,212.8281055291748,19.666648569488526C212.4909575291748,19.666648569488526,212.4066640291748,19.333348569488525,212.3223705291748,19.000048569488527C212.4909445291748,18.916648569488526,212.4909445291748,18.749948569488524,212.4909445291748,18.583348569488525Z" fill="#717071" fill-opacity="1"/></g><g><path d="M157.8720896411133,9.249996204032897C157.28206964111328,10.833336204032898,157.53493964111328,12.416666204032898,157.6192196411133,14.000006204032898C157.6192196411133,14.083306204032898,157.6192196411133,14.250006204032898,157.6192196411133,14.333306204032898C157.6192196411133,14.500006204032898,157.6192196411133,14.750006204032898,157.3663496411133,14.750006204032898C157.19777964111327,14.833306204032898,157.02920964111328,14.666706204032899,156.8606196411133,14.583306204032898C156.52346964111328,14.333306204032898,156.43917964111327,14.000006204032898,156.43917964111327,13.583306204032898C156.35487964111329,12.750006204032898,156.43917964111327,11.916666204032898,156.52346964111328,11.166666204032898C156.6077596411133,10.499996204032898,156.6077596411133,9.749996204032897,156.52346964111328,9.083326204032897C156.52346964111328,8.916666204032898,156.52346964111328,8.749996204032897,156.27059964111328,8.749996204032897C156.1020296411133,8.749996204032897,156.01773964111328,8.833326204032897,155.93344964111327,8.916666204032898C155.51200964111328,9.416666204032898,155.0905696411133,9.916666204032898,154.58483564111327,10.249996204032897C154.4162616411133,10.416666204032898,154.2476876411133,10.499996204032898,153.99481964111328,10.583326204032899C154.07911314111328,10.416666204032898,154.1633936411133,10.333326204032897,154.2476876411133,10.166666204032898C155.42771964111327,8.083326204032897,156.52346964111328,5.9999962040328985,157.3663496411133,3.749996204032898C157.45064964111327,3.499996204032898,157.45064964111327,3.249998204032898,157.28205964111328,3.083331204032898C157.19776964111327,2.916664204032898,156.94490964111327,2.749998204032898,157.1134896411133,2.583331104032898C157.28205964111328,2.4166644040328977,157.53492964111328,2.499997904032898,157.70349964111327,2.583331104032898C157.78779964111328,2.666664204032898,157.8720796411133,2.666664204032898,157.95636964111327,2.749998204032898C158.96782964111327,3.499996204032898,159.05211964111328,3.8333262040328977,158.46210964111327,4.916666204032898C157.95636964111327,5.916666204032898,157.3663496411133,6.833326204032898,156.69203964111327,7.749996204032898C156.52346964111328,7.916666204032898,156.52346964111328,8.083326204032897,156.69203964111327,8.333326204032897C156.8606196411133,8.583326204032897,157.02918964111328,8.833326204032897,157.1134896411133,9.166666204032898C157.45064964111327,9.333336204032898,157.53492964111328,9.499996204032897,157.8720896411133,9.249996204032897Z" fill="#717071" fill-opacity="1"/></g><g><path d="M208.023658883667,4.749999046325684C208.19222888366698,4.749999046325684,208.445098883667,4.833332246325684,208.529388883667,4.999999046325684C208.61367888366698,5.249999046325684,208.782258883667,5.499999046325684,208.866538883667,5.749999046325684C208.950828883667,5.999999046325684,208.866538883667,6.1666690463256835,208.69795888366698,6.333329046325684C208.445098883667,6.499999046325684,208.19222888366698,6.6666690463256835,208.023658883667,6.9166690463256835C207.855078883667,7.1666690463256835,207.855078883667,7.249999046325684,208.107948883667,7.4166690463256835C208.36081888366698,7.499999046325684,208.61367888366698,7.6666690463256835,208.950828883667,7.749999046325684C209.540848883667,7.999999046325684,210.046578883667,8.333329046325684,210.552308883667,8.666669046325683C211.395188883667,9.249999046325684,211.73233888366698,10.083329046325684,211.98519888366698,11.083329046325684C211.98519888366698,11.166669046325683,211.98519888366698,11.333329046325684,211.98519888366698,11.416669046325683C211.900908883667,11.833329046325684,211.47946888366698,11.999999046325684,211.142318883667,11.749999046325684C210.805168883667,11.499999046325684,210.552308883667,11.083329046325684,210.299438883667,10.749999046325684C209.70941888366698,9.916669046325683,209.119408883667,9.083329046325684,208.445098883667,8.333329046325684C208.276518883667,8.166669046325683,208.19222888366698,8.083329046325684,208.023658883667,7.9166690463256835C207.517918883667,7.499999046325684,207.517918883667,7.499999046325684,207.096478883667,7.9166690463256835C206.42216888366698,8.499999046325684,205.747858883667,9.166669046325683,205.073558883667,9.749999046325684C204.567828883667,10.249999046325684,203.893528883667,10.583329046325684,203.134927883667,10.583329046325684C203.050633883667,10.583329046325684,202.88205988366698,10.666669046325683,202.79777928366698,10.499999046325684C202.71348578366698,10.333329046325684,202.88207288366698,10.249999046325684,202.96635388366698,10.166669046325683C203.05064688366699,10.083329046325684,203.219220883667,9.999999046325684,203.303501883667,9.916669046325683C205.073558883667,8.999999046325684,206.506458883667,7.6666690463256835,207.68648888366698,6.083329046325684C207.855068883667,5.833329046325684,207.93935888366698,5.666666046325684,207.770788883667,5.333332046325683C207.433638883667,4.916666046325684,207.602208883667,4.749999046325684,208.023658883667,4.749999046325684Z" fill="#717071" fill-opacity="1"/></g><g><path d="M129.12975312438965,16.58333193847656C129.12975312438965,17.16666193847656,128.96118312438963,17.66666193847656,128.96118312438963,18.16666193847656C128.87688312438965,18.91666193847656,128.79260312438964,19.66666193847656,128.70831312438966,20.41666193847656C128.70831312438966,20.66666193847656,128.70831312438966,20.83333193847656,128.70831312438966,21.08333193847656C128.79260312438964,21.33333193847656,128.70831312438966,21.50000193847656,128.37116312438965,21.58333193847656C128.03401312438965,21.66666193847656,127.69685312438965,21.58333193847656,127.44399312438965,21.33333193847656C126.85397312438965,20.83333193847656,126.60110312438965,20.16666193847656,126.43253312438965,19.41666193847656C126.26395312438964,18.66666193847656,126.26395312438964,17.91667193847656,126.26395312438964,17.08333193847656C126.26395312438964,16.50000193847656,126.34825312438964,15.916671938476563,126.17966312438965,15.333331938476562C126.17966312438965,15.166661938476562,126.09537312438965,15.083331938476562,126.09537312438965,14.916661938476562C125.92679312438965,14.499999938476563,125.67393312438965,14.499999938476563,125.33678312438965,14.750001938476563C124.99963312438965,15.083331938476562,124.74676312438964,15.333331938476562,124.40960312438965,15.666661938476562C124.15673612438965,15.916661938476562,123.65101312438965,16.00000193847656,123.39814612438965,15.833331938476562C123.31385222438965,15.750001938476561,123.14527812438965,15.666661938476562,123.39814612438965,15.583331938476562C124.24102912438966,15.250001938476563,124.91534312438965,14.583333938476562,125.50535312438964,14.000001938476563C125.84250312438965,13.666668538476562,126.17966312438965,13.583334938476563,126.68538312438965,13.666668538476562C126.93825312438965,13.750001938476563,127.19112312438965,13.750001938476563,127.44397312438964,13.916667938476563C127.69684312438964,14.000001938476563,127.78112312438965,14.166666938476563,127.69684312438964,14.416667938476563C127.69684312438964,14.500001938476563,127.69684312438964,14.500001938476563,127.61255312438965,14.583335938476562C126.85396312438965,16.16667193847656,126.93824312438964,17.83333193847656,127.19111312438964,19.50000193847656C127.19111312438964,19.66667193847656,127.27540312438965,19.75000193847656,127.44397312438964,19.75000193847656C127.61255312438965,19.75000193847656,127.69684312438964,19.58333193847656,127.69684312438964,19.50000193847656C128.11828312438965,18.58333193847656,128.62402312438965,17.75000193847656,128.96117312438966,16.75000193847656C129.12975312438965,16.75000193847656,129.12975312438965,16.66666193847656,129.12975312438965,16.58333193847656Z" fill="#717071" fill-opacity="1"/></g><g><path d="M199.25765800476074,10.33333426147461C199.34195150476074,10.166664261474608,199.42623200476075,10.08333426147461,199.59480600476076,9.916664261474608C201.02770800476074,8.499994261474608,202.29202800476074,6.99999426147461,203.30348800476074,5.249994261474609C203.47205800476075,4.999994261474609,203.55635800476074,4.74999926147461,203.38777800476075,4.416666261474609C203.30348800476074,4.3333322614746095,203.13491800476075,4.166665261474609,203.38777800476075,3.9999991614746095C203.55635800476074,3.9166659614746093,203.80922800476074,3.8333326614746093,204.06208800476074,3.9999991614746095C204.65210800476075,4.49999926147461,204.73639800476073,5.66666426147461,204.23066800476073,6.25000426147461C203.47207800476073,7.24999426147461,202.54489800476074,8.08333426147461,201.61771800476075,9.00000426147461C201.36485800476075,9.25000426147461,201.28057800476074,9.416664261474608,201.44914800476073,9.749994261474608C201.61771800476075,10.08333426147461,201.61771800476075,10.499994261474608,201.53343800476074,10.916664261474608C201.28057800476074,11.91666426147461,201.11199800476075,12.83333426147461,200.94342800476073,13.83332426147461C200.85912800476075,14.33337426147461,200.69055800476073,14.83337426147461,200.52198800476074,15.33337426147461C200.52198800476074,15.41667426147461,200.43768800476073,15.58337426147461,200.26911800476074,15.58337426147461C200.18482200476075,15.58337426147461,200.10054200476074,15.499974261474609,200.10054200476074,15.41667426147461C199.93196700476074,14.91667426147461,199.84767400476073,14.41667426147461,199.93196700476074,13.83332426147461C200.10054200476074,13.08332426147461,200.43769800476073,12.41666426147461,200.77484800476074,11.666664261474608C201.02771800476074,11.166664261474608,201.28058800476074,10.666664261474608,201.28058800476074,9.999994261474608C201.28058800476074,9.583324261474608,201.11200800476075,9.499994261474608,200.77484800476074,9.666664261474608C200.18483500476074,9.999994261474608,199.76339300476073,10.249994261474608,199.25765800476074,10.33333426147461Z" fill="#717071" fill-opacity="1"/></g><g><path d="M221.42551206237792,13.833333969116211C221.59410206237794,13.666663969116211,221.76266206237793,13.50000396911621,221.93125206237792,13.25000396911621C222.18410206237792,13.00000396911621,222.09983206237794,12.833333969116211,221.76266206237793,12.75000396911621C221.42551206237792,12.666663969116211,221.08836206237794,12.583333969116211,220.83548406237793,12.416663969116211C220.49833606237792,12.25000396911621,220.24545606237794,12.00000396911621,220.07689436237794,11.666663969116211C220.07689436237794,11.583333969116211,219.99260096237794,11.50000396911621,220.07689436237794,11.50000396911621C220.16118806237793,11.416663969116211,220.16118806237793,11.50000396911621,220.24548106237793,11.50000396911621C220.49833606237792,11.75000396911621,220.75121706237792,11.666663969116211,221.08836206237794,11.666663969116211C221.59410206237794,11.666663969116211,222.18410206237792,11.75000396911621,222.68984206237792,11.75000396911621C222.85842206237794,11.75000396911621,223.02698206237793,11.666663969116211,223.11128206237794,11.50000396911621C223.27986206237793,11.166663969116211,223.44843206237792,10.833333969116211,223.70131206237792,10.50000396911621C223.78560206237793,10.250000969116211,223.70131206237792,10.166667969116212,223.61701206237794,9.99999996911621C223.53272206237793,9.833333969116211,223.36416206237794,9.74999996911621,223.53272206237793,9.583333969116211C223.70131206237792,9.416667169116211,223.86987206237794,9.416667169116211,224.03846206237793,9.583333969116211C224.45990206237792,9.833333969116211,224.71275206237792,10.250000969116211,224.88134206237794,10.666663969116211C224.96563206237792,10.833333969116211,224.88134206237794,11.00000396911621,224.71275206237792,11.166663969116211C224.54416206237792,11.416663969116211,224.62846206237793,11.50000396911621,224.79704206237793,11.666663969116211C225.04990206237792,11.833333969116211,225.21849206237792,12.083333969116211,225.47134206237794,12.25000396911621C225.80849206237792,12.583333969116211,225.63993206237794,13.00000396911621,225.30275206237792,13.166663969116211C225.04990206237792,13.25000396911621,224.79702206237792,13.25000396911621,224.54416206237792,13.25000396911621C224.37558206237793,13.25000396911621,224.20702206237792,13.25000396911621,224.12272206237793,13.166663969116211C223.36413206237793,13.00000396911621,222.77410206237792,13.083333969116211,222.26837206237792,13.666663969116211C222.01551206237792,13.75000396911621,221.76266206237793,13.75000396911621,221.42551206237792,13.833333969116211Z" fill="#717071" fill-opacity="1"/></g><g><path d="M206.3378963470459,17.83332818145752C206.3378963470459,17.66666818145752,206.3378963470459,17.58332818145752,206.4221898470459,17.49999818145752C206.84363134704589,16.16666818145752,207.2650733470459,14.74999818145752,207.6865163470459,13.41666818145752C207.8550863470459,12.999998181457519,207.9393863470459,12.583328181457519,208.0236663470459,12.16666818145752C208.1922363470459,11.499998181457519,208.2765263470459,10.83333218145752,208.0236663470459,10.16666618145752C208.0236663470459,10.08333218145752,207.9393663470459,9.99999918145752,208.0236663470459,9.91666568145752C208.1079563470459,9.83333208145752,208.1922363470459,9.91666568145752,208.2765263470459,9.91666568145752C208.8665463470459,10.08333218145752,209.2037063470459,10.66666518145752,209.1194163470459,11.249998181457519C208.8665463470459,12.333328181457519,208.6136763470459,13.333328181457519,208.3608263470459,14.41666818145752C208.0236763470459,15.66666818145752,207.4336463470459,16.74999818145752,206.5907643470459,17.66666818145752C206.5064703470459,17.74999818145752,206.5064703470459,17.74999818145752,206.3378963470459,17.83332818145752C206.4221769470459,17.83332818145752,206.4221769470459,17.83332818145752,206.3378963470459,17.83332818145752Z" fill="#717071" fill-opacity="1"/></g><g><path d="M160.90646734191895,9C162.00221734191894,9,162.67652734191896,9.583333,162.76080734191893,10.5C162.76080734191893,10.91667,162.59222734191894,11,162.25506734191896,11C161.91791734191895,11,161.66505734191895,10.83333,161.41218734191895,10.5C161.07503734191894,10.08333,160.65359434191893,9.75,159.97928534191894,9.666667C159.89499234191894,9.666667,159.72641774191894,9.666667,159.72641774191894,9.583333C159.64212424191894,9.416667,159.81071134191893,9.416667,159.89499234191894,9.333333C160.31644634191895,9.0833329,160.73788734191893,9.0833329,160.90646734191895,9Z" fill="#717071" fill-opacity="1"/></g><g><path d="M204.48355330358888,15.416669046325683C204.06211200358888,14.833329046325684,204.06211200358888,14.249999046325684,204.23068630358887,13.666669046325683C204.48355330358888,12.666669046325683,204.90499530358886,11.749999046325684,205.32643430358885,10.749999046325684C205.32643430358885,12.333329046325684,205.49501430358887,13.916669046325683,204.48355330358888,15.416669046325683Z" fill="#717071" fill-opacity="1"/></g><g><path d="M125.92679696121216,9.666666984558105C126.93825696121216,9.750000584558105,127.27541696121216,10.249999984558105,127.19111696121216,11.083336984558105C127.19111696121216,11.416666984558105,126.76967696121216,11.583336984558105,126.51681696121216,11.416666984558105C126.26394696121216,11.249996984558106,126.01107696121215,11.166666984558105,125.84250696121215,10.916666984558105C125.58963696121216,10.583332984558105,125.33676796121216,10.416665984558106,124.83104496121216,10.416665984558106C124.66247096121216,10.416665984558106,124.49389696121216,10.416665984558106,124.49389696121216,10.166665984558106C124.49389696121216,9.999998984558106,124.66247096121216,9.916665984558106,124.83104496121216,9.833332984558105C125.25249996121215,9.749999884558106,125.58964696121215,9.666666984558105,125.92679696121216,9.666666984558105Z" fill="#717071" fill-opacity="1"/></g><g><path d="M158.4621003162842,8.166666507720947C158.4621003162842,8.250000107720947,158.4621003162842,8.250000107720947,158.5463943162842,8.333332507720947C158.4621003162842,8.499999507720947,158.2935263162842,8.666665507720948,158.12495231628418,8.916666507720947C158.20923291628418,8.583333507720948,158.2935263162842,8.333332507720947,158.4621003162842,8.166666507720947Z" fill="#717071" fill-opacity="1"/></g><g><path d="M180.4613806121826,13.249980249023437C179.78706061218261,12.333380249023438,178.9441806121826,11.583380249023438,177.84842061218262,11.166680249023438C177.08983061218262,10.833380249023438,176.33123061218262,10.583330249023437,175.57264061218262,10.333330249023437C174.81405061218263,10.083330249023437,174.8983306121826,10.166670249023438,174.98263061218262,9.416660249023437C175.06692061218263,8.833330249023437,175.23549061218262,8.500000249023437,175.82551061218263,8.416670249023436C176.07838061218263,8.333330249023437,176.24695061218262,8.333330249023437,176.4155206121826,8.500000249023437C176.58410061218262,8.750000249023438,176.7526706121826,8.750000249023438,176.9212606121826,8.583330249023437C177.25841061218262,8.333330249023437,177.51128061218262,8.166670249023436,177.76414061218262,7.8333302490234376C178.1855806121826,7.166670249023437,178.60703061218263,6.416670249023437,178.9441806121826,5.666670249023437C179.02847061218262,5.500000249023437,179.11275061218262,5.3333302490234376,179.2813206121826,5.166670249023437C179.61847061218262,4.8333302490234376,179.7027706121826,4.666670249023437,179.4499006121826,4.250000249023437C179.36560061218262,4.0833302490234376,179.19703061218263,3.9166702490234373,179.11275061218262,3.7500002490234374C178.77560061218261,3.4166702490234373,178.4384406121826,3.2500002490234374,178.0170006121826,3.4166702490234373C177.4269806121826,3.5833302490234376,176.7526706121826,3.6666702490234373,176.1626606121826,3.7500002490234374C175.99408061218261,3.7500002490234374,175.82551061218263,3.7500002490234374,175.82551061218263,3.5000002490234374C175.74122061218262,3.2500002490234374,175.6569406121826,3.0833302490234376,175.4040706121826,2.9166702490234373C175.31977061218262,2.8333302490234376,175.1512006121826,2.7500002490234374,175.23549061218262,2.5833302490234376C175.31979061218263,2.4166702490234373,175.4040706121826,2.4166702490234373,175.57264061218262,2.4166702490234373C175.99408061218261,2.3333302490234376,176.4155206121826,2.3333302490234376,176.7526706121826,2.2500002490234374C177.34269061218262,2.1666702490234373,177.93270061218263,2.0833302490234376,178.5227306121826,1.8333302490234376C178.9441806121826,1.6666702490234375,179.02847061218262,1.2500002490234374,178.6913106121826,0.9166672490234375C178.26987061218261,0.5000001490234375,177.4269806121826,0.5000001490234375,177.0055406121826,0.8333332490234375C176.83697061218263,0.9166672490234375,176.7526706121826,1.0833332490234375,176.58410061218262,1.0833332490234375C175.1512006121826,1.4166662490234376,173.71830061218262,1.7500002490234374,172.20111061218262,2.0000002490234374C172.03253061218263,2.0000002490234374,171.94824061218262,2.0000002490234374,171.77967061218263,2.0000002490234374C171.69537061218261,2.0000002490234374,171.6110906121826,1.8333302490234376,171.52680061218263,2.0000002490234374C171.4425006121826,2.0833302490234376,171.6110906121826,2.1666702490234373,171.69537061218261,2.2500002490234374C172.20111061218262,2.6666702490234373,172.7068306121826,2.8333302490234376,173.29685061218262,2.7500002490234374C173.54971061218262,2.7500002490234374,173.80258061218262,2.6666702490234373,174.05544061218262,2.6666702490234373C174.30830061218262,2.6666702490234373,174.39258061218263,2.7500002490234374,174.39258061218263,3.0000002490234374C174.30829061218262,3.2500002490234374,174.39258061218263,3.3333302490234376,174.56116061218262,3.4166702490234373C174.7297306121826,3.5000002490234374,174.7297306121826,3.7500002490234374,174.64545061218263,3.9166702490234373C174.64545061218263,4.0833302490234376,174.4768806121826,4.0833302490234376,174.30830061218262,4.0833302490234376C173.63399061218263,4.250000249023437,173.04398061218262,4.3333302490234376,172.36967061218263,4.666670249023437C172.9596806121826,4.750000249023437,173.38113061218263,4.8333302490234376,173.88686061218263,4.666670249023437C174.7297506121826,4.500000249023437,174.64545061218263,4.500000249023437,174.64545061218263,5.3333302490234376C174.64545061218263,5.5833302490234376,174.4768806121826,5.750000249023437,174.2240106121826,5.8333302490234376C173.80257061218262,6.000000249023437,173.29683061218262,6.166670249023437,172.87539061218263,6.3333302490234376C172.62252061218263,6.500000249023437,172.4539506121826,6.416670249023437,172.36966061218263,6.166670249023437C172.28536061218261,5.750000249023437,172.2010806121826,5.416670249023437,172.03251061218262,5.000000249023437C171.86393061218263,4.666670249023437,171.52677061218262,4.500000249023437,171.4424906121826,4.166670249023437C171.4424906121826,4.0833302490234376,171.4424906121826,4.000000249023437,171.27392061218262,4.000000249023437C171.1896206121826,4.666670249023437,171.10534061218263,5.3333302490234376,171.27392061218262,6.000000249023437C171.52679061218262,6.750000249023437,171.77965061218262,7.416670249023437,172.11680061218263,8.166670249023436C172.2010906121826,8.416670249023436,172.28538061218262,8.583330249023437,172.53824061218262,8.750000249023438C172.7068206121826,8.833330249023437,172.87539061218263,9.000000249023438,173.04398061218262,8.916670249023438C173.29685061218262,8.666670249023438,173.63399061218263,8.750000249023438,173.97116061218262,8.750000249023438C174.2240206121826,8.750000249023438,174.30830061218262,8.833330249023437,174.30830061218262,9.083330249023437C174.30830061218262,9.166670249023438,174.30830061218262,9.333330249023437,174.2240106121826,9.416670249023438C174.13972061218263,9.833330249023437,174.05544061218262,9.833330249023437,173.7182706121826,9.750000249023438C172.9596806121826,9.583330249023437,172.11680061218263,9.416670249023438,171.35820061218263,9.333330249023437C171.1896206121826,9.333330249023437,171.10533061218263,9.250000249023438,170.93675761218262,9.416670249023438C171.77964061218262,9.666670249023438,172.53823061218262,10.083330249023437,173.29683061218262,10.500000249023438C173.7182706121826,10.749980249023437,173.7182706121826,10.833380249023438,173.4654106121826,11.166680249023438C172.62252061218263,12.333380249023438,171.52677061218262,13.249980249023437,170.00958061218262,13.666680249023438C170.34672861218263,13.749980249023437,170.6838896121826,13.666680249023438,171.10533061218263,13.666680249023438C172.53823061218262,13.499980249023437,173.63398061218263,12.916680249023438,174.39257061218262,11.583380249023438C174.56115061218262,11.249980249023437,174.64544061218263,11.249980249023437,174.9825906121826,11.416680249023438C176.2469106121826,12.166680249023438,177.42694061218262,12.999980249023437,178.69127061218262,13.833380249023438C179.19701061218262,14.166680249023438,179.6184506121826,14.499980249023437,180.20848061218263,14.583380249023438C180.6298806121826,14.666680249023438,180.79848061218263,14.583380249023438,180.88278061218261,14.166680249023438C180.88278061218261,13.833380249023438,180.71418061218262,13.499980249023437,180.4613806121826,13.249980249023437ZM176.1626606121826,6.0833302490234376C176.33123061218262,6.000000249023437,176.4998106121826,6.000000249023437,176.58410061218262,5.8333302490234376C176.7526706121826,5.750000249023437,176.7526706121826,5.5833302490234376,176.58410061218262,5.500000249023437C176.4155206121826,5.416670249023437,176.1626606121826,5.3333302490234376,175.99408061218261,5.416670249023437C175.57264061218262,5.500000249023437,175.48835061218261,5.416670249023437,175.57264061218262,5.000000249023437C175.57264061218262,4.916670249023437,175.57264061218262,4.8333302490234376,175.57264061218262,4.750000249023437C175.57264061218262,4.416670249023437,175.74122061218262,4.3333302490234376,175.99408061218261,4.250000249023437C176.49982061218262,4.166670249023437,177.0055406121826,4.0833302490234376,177.51128061218262,4.000000249023437C177.84842061218262,3.9166702490234373,178.01701061218262,4.0833302490234376,177.84842061218262,4.416670249023437C177.59556061218262,5.416670249023437,177.08983061218262,6.3333302490234376,176.58410061218262,7.166660249023438C176.33123061218262,7.5833302490234376,175.82551061218263,7.5833302490234376,175.31977061218262,7.666670249023437C175.1512006121826,7.666670249023437,175.06691061218262,7.500000249023437,175.06691061218262,7.3333302490234376C175.2354806121826,6.750000249023437,175.48835061218261,6.250000249023437,176.1626606121826,6.0833302490234376ZM174.56118061218262,7.166670249023437C174.47689061218261,8.166670249023436,174.56118061218262,8.000000249023437,173.71830061218262,8.250000249023437C173.6340106121826,8.250000249023437,173.54973061218263,8.333330249023437,173.46543061218262,8.333330249023437C173.21257061218262,8.416670249023436,173.04399061218263,8.333330249023437,173.04399061218263,8.083330249023437C172.95970061218262,7.750000249023437,172.8754206121826,7.416670249023437,172.79112061218262,7.0833302490234376C172.7068306121826,6.8333302490234376,172.8754206121826,6.750000249023437,173.04399061218263,6.666670249023437C173.46543061218262,6.500000249023437,173.8868806121826,6.500000249023437,174.30832061218263,6.416670249023437C174.56118061218262,6.416670249023437,174.6454606121826,6.500000249023437,174.6454606121826,6.750000249023437C174.56118061218262,6.8333302490234376,174.56118061218262,7.000000249023437,174.56118061218262,7.166670249023437Z" fill="#717071" fill-opacity="1"/></g><g><path d="M196.7290337310791,3.9999972174191476C196.6447337310791,3.3333372174191473,195.6332337310791,2.7499972174191476,195.0432337310791,3.0833372174191473C194.7060937310791,3.3333372174191473,194.2846537310791,3.4166672174191475,193.8632137310791,3.4166672174191475C193.4417637310791,3.4166672174191475,192.9360337310791,3.4999972174191476,192.5145937310791,3.4999972174191476C192.3460137310791,3.4999972174191476,192.0931537310791,3.5833372174191473,191.9245737310791,3.3333372174191473C191.8402837310791,3.0833372174191473,192.0088737310791,2.9999972174191476,192.0931537310791,2.8333372174191473C192.2617237310791,2.583337217419148,192.4302937310791,2.4166672174191475,192.5145937310791,2.083337217419148C192.5145937310791,1.7499972174191476,191.8402837310791,0.8333322174191475,191.4188437310791,0.7499993174191475C191.1659737310791,0.6666659174191475,190.9131037310791,0.7499993174191475,190.8288237310791,0.9166662174191476C190.6602537310791,1.0833322174191475,190.9131137310791,1.2499992174191474,190.9974037310791,1.4166662174191473C191.1659737310791,1.5833322174191475,191.1659737310791,1.7499972174191476,191.0816937310791,1.9999972174191476C190.8288237310791,2.4166672174191475,190.6602537310791,2.8333372174191473,190.4073837310791,3.3333372174191473C190.2388037310791,3.5833372174191473,190.0702337310791,3.7499972174191476,189.8173637310791,3.7499972174191476C188.46874373107912,3.9999972174191476,187.0358537310791,4.333337217419148,185.7715237310791,4.749997217419147C185.5186557310791,4.833337217419148,185.1815077310791,4.916667217419148,185.0129337310791,5.166667217419148C185.35008173107911,5.083337217419148,185.6029497310791,5.166667217419148,185.8558177310791,5.166667217419148C186.4458337310791,5.249997217419147,187.0358537310791,5.166667217419148,187.7101537310791,4.999997217419147C188.2158937310791,4.833337217419148,188.7216137310791,4.749997217419147,189.2273537310791,4.666667217419148C189.3959237310791,4.666667217419148,189.4802237310791,4.583337217419148,189.5645037310791,4.749997217419147C189.6487937310791,4.916667217419148,189.5645037310791,4.999997217419147,189.48020373107911,5.083337217419148C189.0587637310791,5.666667217419148,188.7216137310791,6.249997217419147,188.3001737310791,6.749997217419147C187.5415837310791,7.749997217419147,186.7829837310791,8.749997217419148,185.7715237310791,9.499997217419148C185.6029497310791,9.666667217419148,185.43437573107911,9.749997217419148,185.2657887310791,9.916667217419148C185.0972143310791,10.083327217419148,184.9286402310791,10.333337217419148,185.0972143310791,10.583337217419148C185.1815077310791,10.750007217419148,185.4343627310791,10.583337217419148,185.6029497310791,10.499997217419148C186.2772637310791,10.249997217419148,186.7829837310791,9.833327217419148,187.2887137310791,9.249997217419148C187.9630237310791,8.499997217419146,188.6373337310791,7.749997217419147,189.2273537310791,6.916667217419148C189.3116437310791,6.833327217419147,189.3959237310791,6.749997217419147,189.3959237310791,6.666667217419148C189.4802237310791,6.583337217419148,189.5645037310791,6.583337217419148,189.6487937310791,6.583337217419148C189.7330837310791,6.666667217419148,189.8173637310791,6.666667217419148,189.8173637310791,6.833327217419147C189.8173637310791,6.916667217419148,189.8173637310791,6.999997217419147,189.7330737310791,7.083337217419148C189.48020373107911,7.999997217419147,189.3116337310791,8.999997217419148,189.0587637310791,9.916667217419148C188.8901937310791,10.666667217419148,188.8058937310791,11.416707217419148,188.3844537310791,12.083307217419147C187.96301373107912,12.750007217419148,188.0473037310791,13.416707217419148,188.3001637310791,14.166707217419148C188.3844537310791,14.333307217419147,188.4687337310791,14.500007217419148,188.6373137310791,14.500007217419148C188.8058837310791,14.500007217419148,188.8901737310791,14.333307217419147,188.9744537310791,14.166707217419148C189.0587537310791,13.750007217419148,189.1430337310791,13.333307217419147,189.2273237310791,12.916707217419148C189.3116237310791,12.500007217419148,189.4801937310791,12.000007217419148,189.4801937310791,11.583307217419147C189.5644837310791,10.666667217419148,189.7330637310791,9.833327217419148,189.9016337310791,8.999997217419148C189.9016337310791,8.833327217419148,190.0702137310791,8.749997217419148,190.2387837310791,8.749997217419148C190.4916537310791,8.749997217419148,190.8288037310791,8.749997217419148,191.0816637310791,8.749997217419148C191.2502437310791,8.749997217419148,191.4188137310791,8.666667217419148,191.5031037310791,8.833327217419148C191.5874037310791,8.999997217419148,191.4188137310791,9.083327217419148,191.3345337310791,9.249997217419148C191.5031037310791,9.166667217419148,191.6716837310791,9.083327217419148,191.7559737310791,8.999997217419148C192.0088437310791,8.833327217419148,192.1774137310791,8.749997217419148,192.4302837310791,8.583327217419146C192.6831537310791,8.499997217419146,192.8517237310791,8.583327217419146,192.8517237310791,8.833327217419148C192.8517237310791,9.166667217419148,192.7674337310791,9.583327217419148,192.7674337310791,9.916667217419148C192.7674337310791,10.083327217419148,192.5988637310791,10.249997217419148,192.4302837310791,10.166667217419148C192.1774137310791,10.083327217419148,192.0088437310791,10.166667217419148,191.7559737310791,10.166667217419148C191.3345337310791,10.249997217419148,190.8288037310791,10.416667217419148,190.4916537310791,9.999997217419148C190.4073537310791,9.916667217419148,190.4073537310791,9.999997217419148,190.3230737310791,9.999997217419148C190.1545037310791,10.083327217419148,190.0702137310791,10.249997217419148,190.0702137310791,10.416667217419148C190.0702137310791,10.583327217419148,190.2387837310791,10.666667217419148,190.4073537310791,10.750007217419148C190.6602237310791,10.833307217419147,190.9130937310791,10.916707217419148,191.1659437310791,10.916707217419148C191.5030937310791,10.916707217419148,191.9245337310791,10.916707217419148,192.2617037310791,10.916707217419148C192.5988437310791,10.916707217419148,192.6831437310791,11.000007217419148,192.6831437310791,11.333307217419147C192.5988437310791,11.750007217419148,192.5988437310791,12.166707217419148,192.5988437310791,12.583307217419147C192.5145537310791,13.416707217419148,192.5145537310791,13.416707217419148,191.6716737310791,13.166707217419148C191.08165373107911,12.916707217419148,190.5759137310791,12.583307217419147,189.9859037310791,12.166707217419148C190.4073437310791,13.083307217419147,190.9973637310791,13.916707217419148,191.7559637310791,14.583307217419147C191.8402537310791,14.666707217419148,192.0088337310791,14.750007217419148,192.0088337310791,15.000007217419148C192.0088337310791,15.166707217419148,192.0931237310791,15.416707217419148,192.34598373107912,15.416707217419148C192.5988437310791,15.500007217419148,192.7674237310791,15.250007217419148,192.8517137310791,15.083307217419147C193.3574537310791,14.500007217419148,193.6945937310791,13.750007217419148,193.7788937310791,13.000007217419148C193.8631837310791,12.166707217419148,193.8631837310791,11.416707217419148,193.9474637310791,10.583337217419148C194.0317637310791,9.333337217419148,193.9474637310791,8.083337217419148,194.4532037310791,6.999997217419147C194.5374937310791,6.833337217419148,194.5374937310791,6.666667217419148,194.36890373107912,6.583337217419148C194.1160437310791,6.249997217419147,193.8631737310791,5.999997217419147,193.6103137310791,5.666667217419148C193.4417437310791,5.499997217419147,193.1888737310791,5.416667217419148,192.9360037310791,5.583337217419148C192.1774137310791,5.916667217419148,191.4188137310791,5.999997217419147,190.6602237310791,6.249997217419147C190.4073537310791,6.333337217419148,190.3230737310791,6.166667217419148,190.1544937310791,5.999997217419147C190.07019373107912,5.833337217419148,189.9016237310791,5.666667217419148,190.07019373107912,5.416667217419148C190.3230637310791,5.083337217419148,190.5759337310791,4.749997217419147,190.8287837310791,4.416667217419148C190.9130837310791,4.249997217419148,191.08165373107911,4.249997217419148,191.2502237310791,4.249997217419148C192.6831237310791,4.249997217419148,194.2003237310791,4.333337217419148,195.6332337310791,4.499997217419148C195.8018337310791,4.499997217419148,196.0546337310791,4.499997217419148,196.2232337310791,4.499997217419148C196.6447337310791,4.499997217419148,196.7290337310791,4.333337217419148,196.7290337310791,3.9999972174191476ZM191.3345637310791,6.666667217419148C191.7560037310791,6.583337217419148,192.0931537310791,6.499997217419147,192.5145937310791,6.499997217419147C192.5988837310791,6.499997217419147,192.6831637310791,6.499997217419147,192.8517437310791,6.499997217419147C193.1046037310791,6.499997217419147,193.1888837310791,6.583337217419148,193.1888837310791,6.833327217419147C193.1888837310791,7.249997217419147,193.1045937310791,7.583327217419147,193.0203137310791,7.999997217419147C193.0203137310791,8.249997217419146,192.8517437310791,8.333327217419146,192.5988737310791,8.166667217419148C192.2617237310791,7.833327217419147,191.8402837310791,7.833327217419147,191.4188437310791,8.083327217419146C191.0816937310791,8.249997217419146,190.74453373107912,8.333327217419146,190.4073837310791,8.416667217419148C190.3230937310791,8.499997217419146,190.1545137310791,8.499997217419146,190.0702337310791,8.416667217419148C189.9016637310791,8.333327217419146,189.9859437310791,8.166667217419148,189.9859437310791,8.083327217419146L189.9859437310791,7.999997217419147C190.3231037310791,6.916667217419148,190.3231037310791,6.916667217419148,191.3345637310791,6.666667217419148Z" fill="#717071" fill-opacity="1"/></g><g><path d="M153.8262818206787,15.916644137191772C153.4890818206787,15.250044137191772,153.0676818206787,14.583344137191773,152.22478182067871,14.416644137191772C151.88758182067872,14.333344137191773,151.4661818206787,14.333344137191773,151.1290218206787,14.333344137191773C149.8646918206787,14.166644137191772,148.76894182067872,13.499994137191772,147.5889118206787,13.083334137191773C147.42034182067871,12.999994137191772,147.42034182067871,12.833334137191773,147.42034182067871,12.666664137191772C147.5889118206787,12.250004137191773,147.75749182067872,11.749994137191774,147.92607182067871,11.333334137191773C148.0946518206787,10.916664137191773,148.17894182067872,10.416664137191773,148.6003818206787,10.083334137191773C148.7689618206787,9.916664137191773,148.8532518206787,9.750004137191773,148.68468182067872,9.500004137191773C148.3475318206787,8.916664137191773,147.42035182067872,8.750004137191773,146.9989118206787,9.166664137191773C146.5774718206787,9.583334137191773,146.0717318206787,9.833334137191773,145.65029182067872,10.083334137191773C145.5660018206787,10.166664137191773,145.39742182067872,10.166664137191773,145.3131418206787,10.083334137191773C145.2288518206787,10.000004137191773,145.2288518206787,9.833334137191773,145.3131418206787,9.750004137191773C145.65029182067872,9.083334137191773,145.90316182067872,8.333334137191773,146.0717318206787,7.6666641371917725C146.15603182067872,7.4166641371917725,146.2403118206787,7.333334137191772,146.4931718206787,7.250004137191772C146.91462182067872,7.1666641371917725,147.25176182067872,7.083334137191772,147.67321182067872,7.000004137191772C148.17894182067872,6.9166641371917725,148.6003818206787,6.833334137191772,149.1061018206787,6.6666641371917725C149.52755182067872,6.583334137191772,149.6118418206787,6.250004137191772,149.52755182067872,5.9166641371917725C149.4432518206787,5.583334137191772,148.8532418206787,5.333334137191772,148.43180182067871,5.500004137191772C147.8417818206787,5.6666641371917725,147.25176182067872,5.9166641371917725,146.6617418206787,6.1666641371917725C146.3245918206787,6.250004137191772,146.24029182067872,6.1666641371917725,146.24029182067872,5.833334137191772C146.24029182067872,5.583334137191772,146.24029182067872,5.4166641371917725,146.24029182067872,5.1666641371917725C146.24029182067872,4.333334137191772,146.24029182067872,4.333334137191772,145.48170182067872,4.000000137191773C145.0602618206787,3.8333339371917723,144.63882182067871,3.8333339371917723,144.3016718206787,4.083334137191772C144.0488018206787,4.250000137191773,144.0488018206787,4.416667137191773,144.3016718206787,4.583333137191772C144.4702518206787,4.666667137191773,144.5545418206787,4.750000137191773,144.72311182067872,4.750000137191773C144.89169182067872,4.833333137191772,145.0602618206787,5.000004137191772,145.0602618206787,5.1666641371917725C145.0602618206787,5.583334137191772,145.0602618206787,6.000004137191772,145.14456182067872,6.333334137191772C145.14456182067872,6.583334137191772,145.0602618206787,6.750004137191772,144.8074118206787,6.833334137191772C143.7959518206787,7.250004137191772,142.86877182067872,7.6666641371917725,141.9416098206787,8.166664137191773C141.7730358206787,8.250004137191773,141.6887418206787,8.250004137191773,141.52016782067872,8.166664137191773C141.43587482067872,8.083334137191773,141.35159382067872,8.000004137191773,141.2673005206787,8.166664137191773C141.1830070206787,8.333334137191773,141.2673005206787,8.416664137191773,141.35159382067872,8.583334137191773C141.6887418206787,9.000004137191773,142.7844918206787,9.250004137191773,143.2902318206787,8.916664137191773C143.7959618206787,8.666664137191773,144.3016818206787,8.333334137191773,144.8074218206787,8.083334137191773C145.0602918206787,7.9166641371917725,145.2288618206787,8.000004137191773,145.2288618206787,8.333334137191773C145.2288618206787,8.750004137191773,145.14457182067872,9.083334137191773,145.14457182067872,9.500004137191773C145.0602718206787,9.916664137191773,144.89170182067872,10.250004137191773,144.63883182067872,10.500004137191773C144.5545418206787,10.583334137191773,144.4702618206787,10.666664137191773,144.38597182067872,10.666664137191773C143.7959518206787,10.666664137191773,143.7116618206787,10.833334137191773,143.88023182067872,11.333334137191773C143.9645218206787,11.500004137191773,144.21738182067872,11.750004137191773,144.0488018206787,11.916664137191772C143.88023182067872,12.166664137191772,143.62736182067871,12.000004137191773,143.3744918206787,12.000004137191773C143.20592182067872,12.000004137191773,142.95305182067872,12.000004137191773,142.95305182067872,12.166664137191772C142.95305182067872,12.333334137191773,143.20592182067872,12.333334137191773,143.3744918206787,12.416664137191772C144.3016718206787,12.500004137191773,145.14456182067872,13.000004137191773,145.98744182067873,13.416664137191772C146.2403118206787,13.583334137191773,146.3245918206787,13.666664137191772,146.1560118206787,14.000044137191772C145.3131318206787,15.500044137191772,144.21738182067872,16.583344137191773,142.7844818206787,17.416644137191774C142.61590182067872,17.50004413719177,142.36304182067872,17.583344137191773,142.11017082067872,17.75004413719177C142.36304182067872,17.833344137191773,142.5316118206787,17.833344137191773,142.7001918206787,17.75004413719177C144.63882182067871,17.333344137191773,146.1560118206787,16.333344137191773,147.1674718206787,14.500044137191772C147.42034182067871,14.083344137191773,147.42034182067871,14.083344137191773,147.8417818206787,14.333344137191773C148.93753182067871,15.000044137191772,149.9489918206787,15.583344137191773,151.04474182067872,16.25004413719177C152.1404818206787,16.916644137191774,153.1519818206787,16.583344137191773,154.16338182067872,16.166644137191774C153.74198182067872,16.166644137191774,153.8262818206787,16.083344137191773,153.8262818206787,15.916644137191772ZM146.3245918206787,12.499994137191772C146.24029182067872,12.666664137191772,146.0717218206787,12.749994137191772,145.9031418206787,12.666664137191772C145.3974118206787,12.499994137191772,144.89169182067872,12.416664137191772,144.4702518206787,12.249994137191772C144.21738182067872,12.166664137191772,144.13310182067872,11.999994137191772,144.3859518206787,11.833334137191773C145.0602618206787,11.333334137191773,145.8188518206787,10.916664137191773,146.49316182067872,10.416664137191773C146.74603182067872,10.333334137191773,146.8303118206787,10.416664137191773,146.8303118206787,10.666664137191773C146.74603182067872,11.249994137191774,146.5774418206787,11.833334137191773,146.3245918206787,12.499994137191772Z" fill="#717071" fill-opacity="1"/></g><g><path d="M224.12272421813964,15.49999603088379C223.95413421813964,15.083336030883789,223.86986421813964,14.666666030883789,223.36413421813964,14.49999803088379L223.27983421813965,14.49999803088379C222.77410421813966,14.666666030883789,222.35266421813964,14.49999803088379,221.84692421813963,14.41666503088379C221.50977421813965,14.33333103088379,221.00404421813965,14.49999803088379,220.75118421813966,14.083332030883788L220.66689421813965,14.083332030883788C220.41403421813965,14.33333103088379,220.07686421813966,14.16666503088379,219.73971421813965,14.249999030883789C220.32974421813964,14.666666030883789,220.91974421813964,14.749999030883789,221.50977421813965,14.749999030883789C221.93121421813964,14.749999030883789,222.26836421813965,14.749999030883789,222.68980421813964,14.916666030883789C222.94266421813964,14.99999603088379,223.02695421813965,15.166666030883789,222.94266421813964,15.416666030883789C222.68980421813964,15.916666030883789,222.52122421813965,16.33333603088379,222.35263421813966,16.83333603088379C222.01548421813965,17.66666603088379,221.67833421813964,18.49999603088379,221.34116421813965,19.24999603088379C221.25687421813964,19.41666603088379,221.25687421813964,19.49999603088379,221.08831421813966,19.49999603088379C220.91972421813963,19.49999603088379,220.91972421813963,19.41666603088379,220.83545421813966,19.24999603088379C220.66686421813964,18.99999603088379,220.41401421813964,18.91666603088379,220.07686421813966,18.91666603088379C219.57113421813966,18.99999603088379,218.98112421813966,18.91666603088379,218.47539421813966,18.83333603088379C218.22253421813966,18.74999603088379,218.13824421813965,18.66666603088379,218.22253421813966,18.41666603088379C218.30683421813964,18.16666603088379,218.47539421813966,17.91666603088379,218.55968421813964,17.74999603088379C218.64397421813965,17.50000603088379,218.81254421813964,17.41666603088379,219.14971421813965,17.58333603088379C219.57115421813964,17.83333603088379,220.07689421813964,17.99999603088379,220.58262421813964,18.08333603088379C220.83548421813964,18.08333603088379,221.17265421813966,18.16666603088379,221.17265421813966,17.91666603088379C221.25694421813964,17.66666603088379,220.91980421813966,17.58333603088379,220.58262421813964,17.58333603088379C220.16118421813965,17.58333603088379,219.65545421813965,17.49999603088379,219.23400421813966,17.41666603088379C218.98115421813964,17.33333603088379,218.89686421813965,17.24999603088379,218.98115421813964,16.91666603088379C219.14974421813966,16.66666603088379,219.23400421813966,16.41666603088379,219.31830421813964,16.16666603088379C219.40259421813965,15.99999603088379,219.57115421813964,15.916666030883789,219.82403421813964,15.99999603088379C220.41406421813966,16.24999603088379,221.08836421813965,16.41666603088379,221.76265421813966,16.33333603088379C221.93124421813965,16.33333603088379,222.01551421813966,16.24999603088379,221.84695421813964,16.08333603088379C221.67836421813965,15.74999603088379,221.34121421813964,15.666666030883789,221.00406421813966,15.74999603088379C220.66692421813966,15.74999603088379,220.32977421813965,15.74999603088379,219.99259421813966,15.74999603088379C219.73974421813966,15.74999603088379,219.57115421813964,15.583336030883789,219.65545421813965,15.333336030883789C219.73974421813966,15.166666030883789,219.65545421813965,14.99999603088379,219.65545421813965,14.916666030883789C219.48686421813966,14.666667030883788,219.31830421813964,14.416666030883789,219.40259421813965,14.08333303088379C219.40259421813965,13.999999630883789,219.31830421813964,13.916666030883789,219.23400421813966,13.916666030883789C219.14971421813965,14.33333303088379,219.14971421813965,14.83333303088379,218.98115421813964,15.24999603088379C218.55971421813965,16.08333603088379,218.22256421813964,16.91666603088379,217.80112421813965,17.66666603088379C217.54826421813965,18.16666603088379,217.29538421813965,18.74999603088379,217.21109421813964,19.33333603088379C217.12679421813965,20.08333603088379,217.12679421813965,20.08333603088379,216.36820421813965,19.99999603088379L216.28391421813964,19.99999603088379C215.77818421813964,19.99999603088379,215.35673821813964,19.83333603088379,214.93529721813965,19.58333603088379C214.85100321813965,19.58333603088379,214.76672321813965,19.49999603088379,214.68242941813966,19.58333603088379C214.59813591813966,19.66666603088379,214.68242941813966,19.74999603088379,214.68242941813966,19.83333603088379C214.76672321813965,20.16666603088379,215.44101921813964,20.74999603088379,215.94676421813966,20.74999603088379C217.21109421813964,20.74999603088379,218.47541421813966,20.83333603088379,219.65545421813965,21.24999603088379C220.83548421813964,21.58333603088379,221.93124421813965,22.16666603088379,223.02698421813966,22.66666603088379C223.19557421813965,22.74999603088379,223.36413421813964,22.83333603088379,223.53271421813966,22.83333603088379C223.78557421813966,22.91666603088379,223.95416421813965,22.74999603088379,223.95416421813965,22.49999603088379C223.95416421813965,21.91666603088379,223.27986421813964,21.33333603088379,222.68983421813965,21.33333603088379C222.43698421813966,21.33333603088379,222.18409421813965,21.33333603088379,222.01553421813963,21.33333603088379C221.67839421813966,21.24999603088379,221.67839421813966,21.08333603088379,221.76268421813964,20.83333603088379C222.35271421813965,19.41666603088379,222.94271421813966,17.99999603088379,223.70130421813965,16.58333603088379C223.78559421813964,16.33333603088379,223.95416421813965,16.16666603088379,224.12274421813964,15.99999603088379C224.12272421813964,16.08333603088379,224.20701421813965,15.833336030883789,224.12272421813964,15.49999603088379ZM220.75118421813966,20.24999603088379C220.58260421813964,20.49999603088379,220.41403421813965,20.66666603088379,220.32974421813964,20.91666603088379C220.32974421813964,21.08333603088379,220.16115421813964,21.16666603088379,219.99259421813966,21.08333603088379C219.23400421813966,20.91666603088379,218.55968421813964,20.74999603088379,217.80109421813964,20.58332603088379C217.63250421813964,20.58332603088379,217.46394421813966,20.49999603088379,217.54824421813964,20.24999603088379C217.63253421813965,19.99999603088379,217.71682421813964,19.66666603088379,217.80109421813964,19.33332603088379C217.88538421813965,19.16666603088379,217.96968421813966,19.08333603088379,218.22253421813966,19.16666603088379C218.98112421813966,19.49999603088379,219.73971421813965,19.58332603088379,220.49833421813966,19.66666603088379C220.66692421813966,19.66666603088379,220.75118421813966,19.66666603088379,220.83548421813964,19.83333603088379C221.00406421813966,19.99999603088379,220.83548421813964,20.08333603088379,220.75118421813966,20.24999603088379Z" fill="#717071" fill-opacity="1"/></g></g></g></g></svg>